<?xml version="1.0" encoding="utf-8"?>
<!-- Generator: Adobe Illustrator 21.0.0, SVG Export Plug-In . SVG Version: 6.00 Build 0)  -->
<svg version="1.1" id="Layer_1" xmlns="http://www.w3.org/2000/svg" xmlns:xlink="http://www.w3.org/1999/xlink" x="0px" y="0px"
	 viewBox="0 0 900 900" style="enable-background:new 0 0 900 900;" xml:space="preserve">
<g>
	<g>
		<g>
			<g>
				<path d="M733.7,849.7c-0.3,0-0.5,0-0.8,0c-26.5-0.3-51.2-12.5-67.9-33.3L413.8,499.3l5.5-4.3L670.4,812
					c15.4,19.2,38.2,30.4,62.5,30.7c21.8,0.2,42.4-8.3,58-23.9l18.9-19c16.3-16.3,25.3-39.2,24.5-62.7
					c-0.8-23.4-11.3-45.5-28.8-60.8l-305.1-263l4.6-5.3l305.1,263c19,16.5,30.4,40.5,31.2,65.8c0.8,25.5-8.8,50.2-26.5,67.9
					l-18.9,19C779.1,840.5,757.1,849.7,733.7,849.7z"/>
			</g>
		</g>
	</g>
	<g>
		<g>
			<g>
				<path d="M352,558.3c-5.2,0-10.1-2.2-13.7-5.9l5.1-4.8c2.2,2.3,5.3,3.7,8.5,3.7c3.3,0,6.4-1.3,8.7-3.6l191.2-191.8
					c4.8-4.8,4.9-13,0.2-17.9l5-4.9c7.5,7.7,7.3,20.1-0.2,27.7L365.7,552.7C362,556.3,357.2,558.3,352,558.3z M182.1,389.6
					c-7.5-7.7-7.3-20.1,0.2-27.7l191.3-191.8c3.7-3.7,8.5-5.6,13.7-5.6c5.2,0,10,2.1,13.6,5.9l-5,4.9c-2.3-2.4-5.4-3.7-8.6-3.7
					c0,0-0.1,0-0.1,0c-3.2,0-6.3,1.3-8.6,3.6L187.3,366.9c-4.8,4.8-4.9,13-0.2,17.9L182.1,389.6z"/>
			</g>
		</g>
	</g>
	<g>
		<g>
			<g>
				<path d="M264.9,674.6c-0.3,0-0.5,0-0.8,0c-26.3-0.3-50.8-11-69.2-30.1L86.6,531.7C48.8,492.3,49.4,428.6,88,389.8
					c13.6-13.6,32.8-21.2,52.7-21c19.9,0.2,39,8.2,52.3,22.1l141.8,147.8c28.6,29.8,28.1,77.9-1,107.2
					C315.3,664.4,290.9,674.6,264.9,674.6z M91.6,526.9l108.3,112.8c17,17.7,39.9,27.6,64.2,27.9c0.2,0,0.5,0,0.7,0
					c24.1,0,46.8-9.5,63.9-26.7c26.5-26.6,26.9-70.3,1-97.4L188,395.7c-12-12.5-29.2-19.7-47.3-19.9c-18.1-0.2-35.5,6.7-47.7,18.9
					C57.1,430.9,56.4,490.2,91.6,526.9L91.6,526.9z"/>
			</g>
		</g>
	</g>
	<g>
		<g>
			<g>
				<path d="M600.3,355.7c-0.3,0-0.5,0-0.8,0c-19.8-0.1-38.4-8.2-52.3-22.7L405.4,185.2c-28.6-29.8-28.2-77.9,1-107.2
					c17.6-17.7,42.7-27.8,68.7-27.8c0.3,0,0.7,0,1,0c26.4,0.3,51.7,10.9,69.2,29.1l108.4,112.8c37.8,39.4,37.2,103-1.4,141.8
					C638.2,348,619.8,355.7,600.3,355.7z M475.2,57.2c-24.2,0-47.4,9.4-63.8,25.7c-26.5,26.6-27,70.3-1,97.4l0,0l141.9,147.8
					c12.6,13.1,29.4,20.4,47.3,20.5c17.9,0.2,34.8-6.8,47.7-19.7c35.9-36.1,36.6-95.4,1.4-132L540.3,84.2
					c-16.2-16.9-39.6-26.8-64.2-27C475.8,57.2,475.5,57.2,475.2,57.2z"/>
			</g>
		</g>
	</g>
</g>
</svg>
