<?xml version="1.0" encoding="utf-8"?>
<!-- Generator: Adobe Illustrator 21.0.0, SVG Export Plug-In . SVG Version: 6.00 Build 0)  -->
<svg version="1.1" id="Layer_1" xmlns="http://www.w3.org/2000/svg" xmlns:xlink="http://www.w3.org/1999/xlink" x="0px" y="0px"
	 viewBox="0 0 900 900" style="enable-background:new 0 0 900 900;" xml:space="preserve">
<style type="text/css">
	.st0{fill:#3C6233;}
</style>
<g>
	<g>
		<path d="M791.7,399H108.3c-33.2,0-60.2-27-60.2-60.2v-47.4c0-33.2,27-60.2,60.2-60.2h683.3c33.2,0,60.2,27,60.2,60.2v47.4
			C851.9,372,824.9,399,791.7,399z M108.3,238.2c-29.4,0-53.2,23.9-53.2,53.2v47.4c0,29.4,23.9,53.2,53.2,53.2h683.3
			c29.4,0,53.2-23.9,53.2-53.2v-47.4c0-29.4-23.9-53.2-53.2-53.2H108.3z"/>
	</g>
	<g>
		<path d="M706.3,765.1H193.7c-24.6,0-44.9-18.4-47.2-42.9l-33.6-324.4c-0.2-1.9,1.2-3.6,3.1-3.8c1.9-0.2,3.6,1.2,3.8,3.1
			l33.6,324.5c2,20.9,19.3,36.6,40.2,36.6h512.7c20.9,0,38.2-15.7,40.2-36.6L780.2,397c0.2-1.9,1.9-3.3,3.8-3.1s3.3,1.9,3.1,3.8
			l-33.6,324.5C751.2,746.7,730.9,765.1,706.3,765.1z"/>
	</g>
	<g>
		<path d="M275.3,665.3c-1.9,0-3.5-1.6-3.5-3.5V462.1c0-1.9,1.6-3.5,3.5-3.5s3.5,1.6,3.5,3.5v199.7
			C278.8,663.7,277.2,665.3,275.3,665.3z"/>
	</g>
	<g>
		<path d="M391.8,665.3c-1.9,0-3.5-1.6-3.5-3.5V462.1c0-1.9,1.6-3.5,3.5-3.5s3.5,1.6,3.5,3.5v199.7
			C395.3,663.7,393.7,665.3,391.8,665.3z"/>
	</g>
	<g>
		<path d="M508.2,665.3c-1.9,0-3.5-1.6-3.5-3.5V462.1c0-1.9,1.6-3.5,3.5-3.5s3.5,1.6,3.5,3.5v199.7
			C511.7,663.7,510.2,665.3,508.2,665.3z"/>
	</g>
	<g>
		<path d="M624.7,665.3c-1.9,0-3.5-1.6-3.5-3.5V462.1c0-1.9,1.6-3.5,3.5-3.5s3.5,1.6,3.5,3.5v199.7
			C628.2,663.7,626.6,665.3,624.7,665.3z"/>
	</g>
	<g>
		<path d="M243.8,238.2c-1,0-2-0.4-2.7-1.3c-1.2-1.5-1-3.7,0.5-4.9l151.7-125.7c1.5-1.2,3.7-1,4.9,0.5c1.2,1.5,1,3.7-0.5,4.9
			L246,237.4C245.4,237.9,244.6,238.2,243.8,238.2z"/>
	</g>
	<g>
		<path d="M654.3,238.2c-0.8,0-1.6-0.3-2.2-0.8L500.4,111.7c-1.5-1.2-1.7-3.4-0.5-4.9s3.4-1.7,4.9-0.5L656.5,232
			c1.5,1.2,1.7,3.4,0.5,4.9C656.3,237.8,655.3,238.2,654.3,238.2z"/>
	</g>
</g>
<g>
	<g>
		<path class="st0" d="M-156.7,378.9h-151c-9.7,0-17.6-7.9-17.6-17.6v-6.4c0-9.7,7.9-17.6,17.6-17.6h151c9.7,0,17.6,7.9,17.6,17.6
			v6.4C-139.2,371-147,378.9-156.7,378.9z M-307.7,342.3c-6.9,0-12.6,5.6-12.6,12.6v6.4c0,6.9,5.6,12.6,12.6,12.6h151
			c6.9,0,12.6-5.6,12.6-12.6v-6.4c0-6.9-5.6-12.6-12.6-12.6H-307.7z"/>
	</g>
	<g>
		<path class="st0" d="M-173.9,462.1h-116.6c-6.5,0-11.8-4.9-12.4-11.3l-7.6-73.7l4.9-0.5l7.6,73.8c0.4,3.9,3.6,6.8,7.5,6.8h116.6
			c3.9,0,7.1-2.9,7.5-6.8l7.6-73.8l4.9,0.5l-7.6,73.8C-162.1,457.3-167.5,462.1-173.9,462.1z"/>
	</g>
	<g>
		<rect x="-274.4" y="391.5" class="st0" width="5" height="45.4"/>
	</g>
	<g>
		<rect x="-247.9" y="391.5" class="st0" width="5" height="45.4"/>
	</g>
	<g>
		<rect x="-221.5" y="391.5" class="st0" width="5" height="45.4"/>
	</g>
	<g>
		<rect x="-195" y="391.5" class="st0" width="5" height="45.4"/>
	</g>
	<g>
		
			<rect x="-284.3" y="323" transform="matrix(0.7699 -0.6382 0.6382 0.7699 -268.0336 -92.2497)" class="st0" width="44.8" height="5"/>
	</g>
	<g>
		
			<rect x="-205.5" y="303.1" transform="matrix(0.6381 -0.7699 0.7699 0.6381 -324.0726 -38.5376)" class="st0" width="5" height="44.8"/>
	</g>
</g>
</svg>
