<?xml version="1.0" encoding="utf-8"?>
<!-- Generator: Adobe Illustrator 21.0.0, SVG Export Plug-In . SVG Version: 6.00 Build 0)  -->
<svg version="1.1" id="Layer_1" xmlns="http://www.w3.org/2000/svg" xmlns:xlink="http://www.w3.org/1999/xlink" x="0px" y="0px"
	 viewBox="0 0 900 900" style="enable-background:new 0 0 900 900;" xml:space="preserve">
<g>
	<g>
		<path d="M350.4,724.5H159.3c-1.5,0-2.8-0.9-3.3-2.3c-0.5-1.4-0.1-2.9,1-3.9c5.9-5,15.6-31.2,14.2-150.8
			c-0.8-68.7-5-135.4-5.1-136.1c-0.1-1.4,0.6-2.7,1.8-3.3c75.4-40.4,177.9-104.7,238-182.1c28.7-36.9,38.4-65.6,39.5-75.6
			c0.2-1.9,1.9-3.3,3.9-3.1c1.9,0.2,3.3,1.9,3.1,3.8c-0.1,1.2-3.7,30.9-40.4,78.4c-21.4,27.6-49.7,55.7-84.1,83.4
			c-42.5,34.2-94.5,67.9-154.7,100.2c0.7,12.2,4.2,72.4,4.9,134.2c0.5,40.5-0.3,73.7-2.3,98.8c-2.4,30-6.2,44.1-9.8,51.2h182.9
			c3.6-3.2,18.4-18.1,36-57.3c18.6-41.4,44.2-119.2,60.4-254.6c0.2-1.9,2-3.3,3.9-3.1c1.9,0.2,3.3,2,3.1,3.9
			c-16.4,137.1-42.4,215.8-61.4,257.7c-20.8,46-37.8,59.1-38.5,59.6C351.9,724.3,351.2,724.5,350.4,724.5z"/>
	</g>
	<g>
		<path d="M738.7,724.5H547.6c-0.8,0-1.5-0.2-2.1-0.7c-0.7-0.5-17.7-13.7-38.5-59.6c-19-41.9-45.1-120.6-61.4-257.7
			c-0.2-1.9,1.1-3.7,3.1-3.9c1.9-0.2,3.7,1.1,3.9,3.1c29.2,244.2,88.7,305,96.4,311.9h183c-6-11.9-8.5-34.2-9.8-51.2
			c-2-25.1-2.8-58.4-2.3-98.8c0.7-61.8,4.2-121.9,4.9-134.2C664.6,400.9,612.5,367.2,570,333c-34.4-27.7-62.7-55.8-84.1-83.4
			c-36.7-47.5-40.3-77.2-40.4-78.4c-0.2-1.9,1.2-3.6,3.1-3.9c1.9-0.2,3.6,1.2,3.9,3.1l0,0c1.1,10,10.9,38.7,39.5,75.6
			c33.2,42.7,101.4,108.9,238,182.1c1.2,0.6,1.9,1.9,1.8,3.3c0,0.7-4.2,67.4-5.1,136.1c-1.4,119.6,8.3,145.8,14.2,150.8
			c1.1,0.9,1.5,2.5,1,3.9C741.5,723.6,740.2,724.5,738.7,724.5z"/>
	</g>
	<g>
		<path d="M47.3,729.2l-25.5-48.5c-0.9-1.7-0.2-3.8,1.5-4.7c1.7-0.9,3.8-0.2,4.7,1.5l18.6,35.4l119.8-283c0.8-1.8,2.8-2.6,4.6-1.9
			c1.8,0.8,2.6,2.8,1.9,4.6L47.3,729.2z"/>
	</g>
	<g>
		<path d="M852.5,732.3L727,435.7c-0.8-1.8,0.1-3.8,1.9-4.6c1.8-0.8,3.8,0.1,4.6,1.9l119.8,283l18.6-35.4c0.9-1.7,3-2.4,4.7-1.5
			c1.7,0.9,2.4,3,1.5,4.7L852.5,732.3z"/>
	</g>
</g>
</svg>
