<?xml version="1.0" encoding="utf-8"?>
<!-- Generator: Adobe Illustrator 21.0.0, SVG Export Plug-In . SVG Version: 6.00 Build 0)  -->
<svg version="1.1" id="Layer_1" xmlns="http://www.w3.org/2000/svg" xmlns:xlink="http://www.w3.org/1999/xlink" x="0px" y="0px"
	 viewBox="0 0 900 900" style="enable-background:new 0 0 900 900;" xml:space="preserve">
<g>
	<g>
		<path d="M736.1,713.3H545.5c-0.8,0-1.5-0.2-2.1-0.7c-0.7-0.5-17.7-13.6-38.4-59.5c-19-41.7-45-120.3-61.3-257
			c-0.2-1.9,1.1-3.7,3.1-3.9c1.9-0.2,3.7,1.1,3.9,3.1c29.1,243.5,88.5,304.2,96.2,311.1h182.5c-6-11.9-8.4-34.1-9.8-51.1
			c-2-25-2.8-58.2-2.3-98.6c0.7-61.6,4.2-121.6,4.9-133.8c-60-32.3-111.9-65.9-154.3-100c-34.4-27.6-62.6-55.6-83.9-83.2
			c-36.6-47.4-40.2-77-40.3-78.2c-0.2-1.9,1.2-3.6,3.1-3.9c1.9-0.2,3.6,1.2,3.9,3.1c1.1,10,10.8,38.6,39.4,75.4
			c33.1,42.6,101.1,108.6,237.4,181.6c1.2,0.6,1.9,1.9,1.8,3.3c0,0.7-4.2,67.2-5.1,135.7c-1.4,119.3,8.2,145.4,14.1,150.4
			c1.1,0.9,1.5,2.5,1,3.9C738.9,712.4,737.6,713.3,736.1,713.3z"/>
	</g>
	<g>
		<path d="M157.6,713.3h190.6c0.8,0,1.5-0.2,2.1-0.7c0.7-0.5,17.7-13.6,38.4-59.5c18.9-41.8,44.9-120.3,61.3-257.1
			c0.2-1.9-1.1-3.7-3.1-3.9c-1.9-0.2-3.7,1.1-3.9,3.1c-29.1,243.5-88.5,304.2-96.2,311.1H164.3c6-11.9,8.4-34.1,9.8-51.1
			c2-25,2.8-58.2,2.3-98.6c-0.7-61.6-4.2-121.6-4.9-133.8c60-32.3,111.9-65.9,154.3-100c34.4-27.6,62.6-55.6,83.9-83.2
			c36.6-47.4,40.2-77,40.3-78.2c0.2-1.9-1.2-3.6-3.1-3.9c-1.9-0.2-3.6,1.2-3.9,3.1c-1.1,10-10.8,38.6-39.4,75.4
			c-33.1,42.6-101.1,108.6-237.4,181.6c-1.2,0.6-1.9,1.9-1.8,3.3c0,0.7,4.2,67.2,5.1,135.7c1.4,119.3-8.2,145.4-14.1,150.4
			c-1.1,0.9-1.5,2.5-1,3.9C154.8,712.4,156.1,713.3,157.6,713.3z"/>
	</g>
	<g>
		<path d="M45.2,713.3c-1.3,0-2.5-0.7-3.1-1.9l-22-41.9c-0.9-1.7-0.2-3.8,1.5-4.7s3.8-0.2,4.7,1.5l18.6,35.3l119.5-282.2
			c0.8-1.8,2.8-2.6,4.6-1.9c1.8,0.8,2.6,2.8,1.9,4.6l-122.3,289c-0.5,1.2-1.7,2.1-3.1,2.1C45.3,713.3,45.2,713.3,45.2,713.3z"/>
	</g>
	<g>
		<path d="M850,715.5L850,715.5c-1.5-0.1-2.6-0.9-3.2-2.1l-122.3-289c-0.8-1.8,0.1-3.8,1.9-4.6c1.8-0.8,3.8,0.1,4.6,1.9l119.5,282.2
			l18.6-35.3c0.9-1.7,3-2.4,4.7-1.5s2.4,3,1.5,4.7l-22,41.9C852.5,714.7,851.3,715.5,850,715.5z"/>
	</g>
</g>
</svg>
