<?xml version="1.0" encoding="utf-8"?>
<!-- Generator: Adobe Illustrator 21.0.0, SVG Export Plug-In . SVG Version: 6.00 Build 0)  -->
<svg version="1.1" id="Layer_1" xmlns="http://www.w3.org/2000/svg" xmlns:xlink="http://www.w3.org/1999/xlink" x="0px" y="0px"
	 viewBox="0 0 900 900" style="enable-background:new 0 0 900 900;" xml:space="preserve">
<g>
	<g>
		<path d="M726.1,783.4H172.7l-0.9-20.5c-0.1-2.2-0.3-4.5-0.3-6.9c0-105.9,61.8-204,157.4-250.2l0,0l0.8-0.4l2.2-1
			c8.3-3.9,16.8-7.3,25.3-10.3l2.7-1c4.4-1.5,8.6-2.8,12.7-4c5.5-1.6,11.1-3,16.8-4.3c3-0.7,6-1.2,8.9-1.8c2.4-0.5,5.2-1,8-1.4
			l1.2-0.2c4.3-0.7,8.2-1.2,11.9-1.6l9.8-0.8c12.7-0.9,26.2-1,39.1-0.1l10.6,0.9c3.4,0.4,6.6,0.9,9.1,1.2l0.7,0.1h0.5l0.3,0.1
			l0.7,0.1c3.5,0.5,7.1,1.1,10.7,1.8l1.4,0.3c1.9,0.3,3.9,0.7,6.1,1.2c5.8,1.3,11.6,2.8,17.6,4.5c4.4,1.3,7.9,2.4,11.2,3.5
			c4.9,1.6,9.6,3.4,14,5.1c4.1,1.6,8.1,3.3,12.4,5.2l1.7,0.8c98.4,45.3,162,144.4,162,252.4c0,2.6-0.2,5.1-0.3,7.6L726.1,783.4z
			 M179.4,776.4h540l0.6-13.1c0.2-2.5,0.3-4.8,0.3-7.2c0-105.3-62-201.9-157.9-246l-1.7-0.8c-4.2-1.9-8.1-3.6-12.1-5.1
			c-4.3-1.7-8.9-3.4-13.6-5c-3.2-1.1-6.7-2.1-11-3.4c-5.9-1.7-11.5-3.1-17.1-4.4c-2.2-0.4-4.1-0.8-6-1.2l-1.4-0.3
			c-3.4-0.7-6.9-1.3-10.4-1.8l-0.8-0.1H488l-0.3-0.1l-0.6-0.1c-2.6-0.4-5.6-0.8-8.8-1.2l-10.3-0.9c-12.5-0.8-25.7-0.8-38.1,0.1
			l-9.6,0.8c-3.5,0.4-7.3,0.9-11.6,1.6l-1.2,0.2c-2.7,0.4-5.4,1-7.8,1.4c-2.9,0.5-5.7,1.1-8.6,1.7c-5.5,1.2-11,2.6-16.3,4.2
			c-4,1.1-8.1,2.5-12.3,3.9l-2.7,1c-8.3,2.9-16.6,6.3-24.7,10.1l-2.2,1.1C239.1,556.6,178.5,652.5,178.5,756c0,2.1,0.1,4.2,0.3,6.4
			l0,0.5L179.4,776.4z M487.3,487.8C487.3,487.8,487.3,487.8,487.3,487.8L487.3,487.8z M489.9,481.3L489.9,481.3
			C489.9,481.3,489.9,481.3,489.9,481.3z M449.8,464.9l-1.4,0c-17.4-0.1-34.4-2.8-50.7-7.9c-1.9-0.6-3.7-1.3-5.3-1.9l-4.4-1.6
			c-2.1-0.7-4.2-1.5-6.2-2.4l0,0c-64.8-27.4-106.6-90.5-106.6-160.8c0-3.1,0.2-6.2,0.4-8.8l0.1-2.2c5.7-91.7,82.1-163.5,174-163.5
			c96.3,0,174.6,78.3,174.6,174.5l0,0.2l-0.1,1.3c0,51.1-23.1,99.6-63.4,132.9l-0.1,0.1l-6.9,5.3c-1.9,1.5-4,3.2-6.3,4.7
			c-4.3,3-8.7,5.5-12.3,7.6l-2.4,1.4c-3.5,1.9-6.9,3.5-11,5.3l-1.1,0.6c-1,0.5-2.1,1-3.2,1.5c-2.8,1.2-5.6,2.2-8.2,3.1l-3.6,1.3
			c-1.3,0.5-2.8,1-4.2,1.5c-2.4,0.7-4.9,1.3-7,1.9L490,460c-1.6,0.4-3.3,0.9-5.1,1.3c-2.2,0.4-4.5,0.8-7.4,1.2l-4.1,0.6
			c-1.9,0.3-3.9,0.6-5.9,0.8C461.6,464.5,455.7,464.9,449.8,464.9z M384.5,444.6c1.9,0.8,3.8,1.5,5.9,2.2l4.5,1.6
			c1.5,0.6,3.2,1.2,4.9,1.8c15.6,4.9,32,7.5,48.7,7.6l1.4,0c5.6,0,11.3-0.3,16.8-0.9c1.8-0.2,3.5-0.5,5.5-0.8l4.3-0.6
			c2.8-0.4,5-0.7,7-1.1c1.6-0.3,3.2-0.8,4.7-1.2l4.6-1.2c2.2-0.5,4.4-1.1,6.6-1.7c1.3-0.4,2.6-0.9,3.9-1.4l3.7-1.3
			c2.5-0.9,5.2-1.8,7.8-2.9c1-0.4,1.9-0.9,2.8-1.3l1.3-0.6c3.9-1.8,7.3-3.3,10.5-5.1l2.3-1.4c3.8-2.1,7.8-4.5,11.9-7.3
			c2.1-1.4,4.1-3,5.9-4.4l6.9-5.3c38.7-32,60.8-78.5,60.8-127.6l0-0.2l0.1-1.3c-0.1-92.3-75.2-167.4-167.6-167.4
			c-88.2,0-161.6,69-167,157l-0.1,2.2c-0.2,2.5-0.4,5.4-0.4,8.3C282.2,357.8,322.4,418.4,384.5,444.6L384.5,444.6z"/>
	</g>
</g>
</svg>
