<?xml version="1.0" encoding="utf-8"?>
<!-- Generator: Adobe Illustrator 21.0.0, SVG Export Plug-In . SVG Version: 6.00 Build 0)  -->
<svg version="1.1" id="Layer_1" xmlns="http://www.w3.org/2000/svg" xmlns:xlink="http://www.w3.org/1999/xlink" x="0px" y="0px"
	 viewBox="0 0 900 900" style="enable-background:new 0 0 900 900;" xml:space="preserve">
<style type="text/css">
	.st0{fill:none;stroke:#5CFF5E;stroke-width:7;stroke-miterlimit:10;}
</style>
<g>
	<g>
		<path d="M814.5,489.1h-721v-62.6h721V489.1z M100.5,482.1h707v-48.6h-707V482.1z"/>
	</g>
	<g>
		<polygon points="136.4,430 129.4,430 129.4,184 129.5,183.6 157.1,63.2 754.6,63.2 781.5,184 781.5,427 774.5,427 774.5,184.8 
			748.9,70.2 162.7,70.2 136.4,184.8 		"/>
	</g>
	<g>
		<polygon points="190.3,778.5 126.5,778.5 126.5,488 133.5,488 133.5,771.5 190.3,771.5 		"/>
	</g>
	<g>
		<rect x="375.2" y="771.5" width="164.1" height="7"/>
	</g>
	<g>
		<polygon points="781.5,778.5 719.3,778.5 719.3,771.5 774.5,771.5 774.5,482.6 781.5,482.6 		"/>
	</g>
	<g>
		<path d="M170.5,726.5c-1.9,0-3.5-1.6-3.5-3.5V598.1c0-1.9,1.6-3.5,3.5-3.5s3.5,1.6,3.5,3.5V723C174,725,172.5,726.5,170.5,726.5z"
			/>
	</g>
	<g>
		<path d="M170.5,757.8c-6.5,0-11.8-5.3-11.8-11.8s5.3-11.8,11.8-11.8c6.5,0,11.8,5.3,11.8,11.8S177.1,757.8,170.5,757.8z
			 M170.5,741.2c-2.7,0-4.8,2.2-4.8,4.8s2.2,4.8,4.8,4.8c2.7,0,4.8-2.2,4.8-4.8S173.2,741.2,170.5,741.2z"/>
	</g>
	<g>
		<path d="M130,672.5h-6.1c-25.1,0-45.5-20.4-45.5-45.5V548c0-25.1,20.4-45.5,45.5-45.5h6.1v7h-6.1c-21.2,0-38.5,17.2-38.5,38.5V627
			c0,21.2,17.2,38.5,38.5,38.5h6.1V672.5z"/>
	</g>
	<g>
		<path d="M116.7,732.5c-18.6,0-33.7-15.1-33.7-33.7s15.1-33.7,33.7-33.7v7c-14.7,0-26.7,12-26.7,26.7s12,26.7,26.7,26.7
			c3.6,0,7.1-0.7,10.4-2.1l2.7,6.4C125.6,731.6,121.2,732.5,116.7,732.5z"/>
	</g>
	<g>
		<path d="M282.8,850c-53.3,0-96.7-43.4-96.7-96.7s43.4-96.7,96.7-96.7c53.3,0,96.7,43.4,96.7,96.7S336.1,850,282.8,850z
			 M282.8,663.7c-49.4,0-89.7,40.2-89.7,89.7s40.2,89.7,89.7,89.7s89.7-40.2,89.7-89.7S332.2,663.7,282.8,663.7z"/>
	</g>
	<g>
		<path d="M626.9,850c-53.3,0-96.7-43.4-96.7-96.7s43.4-96.7,96.7-96.7s96.7,43.4,96.7,96.7S680.1,850,626.9,850z M626.9,663.7
			c-49.4,0-89.7,40.2-89.7,89.7s40.2,89.7,89.7,89.7s89.7-40.2,89.7-89.7S676.3,663.7,626.9,663.7z"/>
	</g>
	<g>
		<path d="M282.8,783.4c-16.8,0-30.6-13.7-30.6-30.6s13.7-30.6,30.6-30.6s30.6,13.7,30.6,30.6S299.6,783.4,282.8,783.4z
			 M282.8,729.3c-13,0-23.6,10.6-23.6,23.6s10.6,23.6,23.6,23.6s23.6-10.6,23.6-23.6S295.8,729.3,282.8,729.3z"/>
	</g>
	<g>
		<path d="M626.9,783.9c-16.8,0-30.6-13.7-30.6-30.6s13.7-30.6,30.6-30.6s30.6,13.7,30.6,30.6S643.7,783.9,626.9,783.9z
			 M626.9,729.8c-13,0-23.6,10.6-23.6,23.6s10.6,23.6,23.6,23.6s23.6-10.6,23.6-23.6S639.8,729.8,626.9,729.8z"/>
	</g>
	<g>
		<path d="M189.6,672.5c-0.8,0-1.7-0.3-2.4-0.9c-1.4-1.3-1.5-3.5-0.2-4.9c0.8-0.9,20.1-21.5,53.4-32.6c19.6-6.5,39.9-8.4,60.5-5.5
			c25.6,3.6,51.5,14.6,77,32.7c1.6,1.1,1.9,3.3,0.8,4.9c-1.1,1.6-3.3,1.9-4.9,0.8c-24.6-17.5-49.5-28.1-74-31.5
			c-19.5-2.8-38.7-1-57.3,5.2c-31.6,10.5-50.3,30.5-50.5,30.7C191.5,672.1,190.6,672.5,189.6,672.5z"/>
	</g>
	<g>
		<path d="M533.7,673.4c-0.9,0-1.7-0.3-2.4-0.9c-1.4-1.3-1.5-3.5-0.2-4.9c0.8-0.9,20.1-21.5,53.4-32.6c19.6-6.5,39.9-8.4,60.5-5.5
			c25.6,3.6,51.5,14.6,77,32.7c1.6,1.1,1.9,3.3,0.8,4.9c-1.1,1.6-3.3,1.9-4.9,0.8c-24.5-17.4-49.4-28-73.8-31.5
			c-19.4-2.8-38.7-1.1-57.2,5c-31.7,10.5-50.6,30.6-50.8,30.8C535.6,673.1,534.6,673.4,533.7,673.4z"/>
	</g>
	<g>
		<path d="M788,710.7c-3.8,0-7.6-0.6-11.2-1.9l2.3-6.6c2.8,1,5.8,1.5,8.8,1.5c14.7,0,26.7-12,26.7-26.7s-12-26.7-26.7-26.7
			c-3.6,0-7.1,0.7-10.4,2.1l-2.7-6.4c4.2-1.8,8.6-2.6,13.1-2.6c18.6,0,33.7,15.1,33.7,33.7S806.6,710.7,788,710.7z"/>
	</g>
	<g>
		<path d="M827.2,781.5h-14.9c-1.9,0-3.5-1.6-3.5-3.5s1.6-3.5,3.5-3.5h14.9c12.9,0,23.3-12.1,23.3-27s-10.5-27-23.3-27H779
			c-1.9,0-3.5-1.6-3.5-3.5s1.6-3.5,3.5-3.5h48.2c16.7,0,30.3,15.3,30.3,34S843.9,781.5,827.2,781.5z"/>
	</g>
	<g>
		<path d="M457.8,244.2c-27.2,0-49.4-20.6-49.4-45.9h7c0,21.6,19,39.2,42.4,39.2c23.3,0,42.3-17.5,42.4-39.1l-6-131.6l7-0.3l6,131.8
			C507.2,223.6,485,244.2,457.8,244.2z"/>
	</g>
	<g>
		<path d="M550.4,244.8c-27.2,0-49.4-20.6-49.4-45.9h7c0,21.6,19,39.2,42.4,39.2c23.3,0,42.3-17.5,42.4-39.1l-11-131.5l7-0.5
			l11,131.8v0.1C599.7,224.2,577.6,244.8,550.4,244.8z"/>
	</g>
	<path class="st0" d="M592.8,66.6"/>
	<g>
		<path d="M642.2,244.1c-27.2,0-49.4-20.6-49.4-45.9h7c0,21.6,19,39.2,42.4,39.2c23.3,0,42.2-17.4,42.4-38.9L660.6,67.1l6.9-1.1
			l24.1,131.9v0.3C691.6,223.5,669.4,244.1,642.2,244.1z"/>
	</g>
	<g>
		<path d="M272.1,244c-27.2,0-49.4-20.6-49.4-45.9l0-0.3l14-131.6l7,0.7l-14,131.5c0.1,21.5,19.1,39,42.4,39
			c23.4,0,42.4-17.6,42.4-39.2l0-0.3l11-131.6l7,0.5l-11,131.5C321.4,223.5,299.3,244,272.1,244z"/>
	</g>
	<g>
		<path d="M732.1,243.1c-23.1,0-43.8-15.2-48.4-37l6.9-1.3c4.5,21.2,26.8,35.1,49.8,30.9c11.3-2.1,21-8.1,27.3-17.1
			c6-8.6,8.2-18.9,6-28.9l6.9-1.3c2.5,11.8,0,23.9-7.1,34c-7.3,10.5-18.6,17.5-31.8,19.9C738.4,242.8,735.3,243.1,732.1,243.1z"/>
	</g>
	<g>
		<path d="M179.1,242.2c-3.3,0-6.5-0.3-9.8-0.9c-13.2-2.4-24.5-9.5-31.8-19.9c-7.1-10.1-9.6-22.1-7.1-34l6.9,1.3
			c-2.1,10.1,0,20.3,6,28.9c6.3,9,16,15,27.3,17.1c2.7,0.5,5.5,0.7,8.2,0.7c20.4,0,39.7-13.4,43.6-31.6l6.9,1.3
			C224.7,226.8,202.9,242.2,179.1,242.2z"/>
	</g>
	<g>
		<path d="M365,243.1c-27.2,0-49.4-20.6-49.4-45.9h7c0,21.6,19,39.2,42.4,39.2c11.9,0,42.4-17.4,42.4-39.2V65.6h7v131.6
			C414.4,222.4,381.7,243.1,365,243.1z"/>
	</g>
</g>
</svg>
